<svg width="75" height="23" viewBox="0 0 75 23" fill="none" xmlns="http://www.w3.org/2000/svg">
<g clip-path="url(#clip0_3_58)">
<path d="M48.5756 4.25926C49.7518 4.25926 50.7054 3.30579 50.7054 2.12963C50.7054 0.953468 49.7518 0 48.5756 0C47.3993 0 46.4457 0.953468 46.4457 2.12963C46.4457 3.30579 47.3993 4.25926 48.5756 4.25926Z" fill="url(#paint0_linear_3_58)"/>
<path d="M46.1618 2.55554H46.7296C47.3922 2.69752 48.7458 3.12345 48.8593 3.69135C49.0015 4.40124 51.2731 6.2469 51.8413 6.53086C52.2955 6.64445 55.1544 6.76748 56.5266 6.81479C56.3848 6.76748 56.186 6.64445 56.5266 6.53086C56.8677 6.41728 57.6152 6.38886 57.9467 6.38886L57.5208 6.67282L58.2308 6.95679L58.0886 7.09875L58.3726 7.38271C58.3726 7.47736 58.3157 7.75184 58.0886 8.0926C57.8048 8.51852 55.9588 8.0926 55.6748 8.0926C55.391 8.0926 52.125 8.51852 51.5572 8.51852C50.9894 8.51852 51.1312 8.37652 48.7174 7.24075C48.7174 7.66667 48.0074 10.0802 47.5815 11.358C49.4275 11.784 49.8534 13.0617 50.1375 13.9136C50.4212 14.7654 51.2731 20.0185 51.6991 20.7284C51.9831 20.4444 52.835 19.7346 53.1191 19.8765C53.3462 19.9901 53.3084 20.3971 53.261 20.5864C52.835 21.3909 51.8126 23 51.1313 23C50.2794 23 50.5634 21.8642 50.4212 21.8642C50.2794 21.8642 48.2915 19.4506 48.1496 17.8889C48.0074 16.3272 45.8777 14.4815 45.3099 14.0555C45.0258 14.7654 42.7539 18.3148 42.3279 18.5987C41.902 18.8827 36.3644 18.4568 34.8026 18.8827C33.2407 19.3086 31.9628 22.5741 31.3949 21.7222C30.3726 20.2457 32.5781 18.0782 33.8087 17.179L33.6667 16.8951C33.6667 16.8477 33.7235 16.7247 33.9507 16.6111C39.6301 16.8951 40.6242 14.1975 40.766 12.0679C40.8796 10.3642 42.8013 6.53086 43.748 4.82716C43.7006 4.77982 43.2081 4.62837 41.6179 4.40124C41.5044 5.19629 40.6242 6.43621 40.1982 6.95679C40.009 7.28806 39.6587 8.17777 39.7723 9.08641C39.8858 9.99505 39.4408 10.1276 39.2041 10.0802C39.1571 10.2695 39.0623 10.6765 39.0623 10.7901C39.0623 10.9037 38.873 10.4588 38.7782 10.2222L38.6363 10.7901L38.3522 10.2222L38.2104 10.7901L37.9263 10.2222L37.6422 10.5061L37.5004 8.66048L38.4945 8.51852C38.7782 7.33537 39.6018 4.62837 40.6242 3.26542C41.6466 1.90246 44.7417 2.22427 46.1618 2.55554Z" fill="url(#paint1_linear_3_58)"/>
<path d="M0.274597 13.5391V10.3764H0.798473C0.976867 10.2482 1.14019 10.0673 1.28843 9.83356C1.43667 9.59733 1.56356 9.27186 1.66909 8.85719C1.77462 8.44004 1.84999 7.89469 1.89522 7.22118L2.11382 3.95663H7.22067V10.3764H8.06491V13.5316H6.49706V11.6769H1.84246V13.5391H0.274597ZM2.68292 10.3764H5.65281V5.30242H3.5837L3.46308 7.22118C3.43042 7.73132 3.3764 8.18368 3.30102 8.57825C3.22815 8.97283 3.13896 9.31836 3.03343 9.61492C2.93041 9.90896 2.81358 10.1628 2.68292 10.3764ZM9.88999 11.7825V10.4555H10.3083C10.5169 10.4555 10.6852 10.4304 10.8134 10.3801C10.9415 10.3274 11.0433 10.2507 11.1186 10.1502C11.1966 10.0472 11.2619 9.91901 11.3146 9.76569L11.4088 9.51312L8.6048 3.95663H10.2933L12.1099 7.75648L13.6287 3.95663H15.2946L12.6338 10.1615C12.5056 10.448 12.3536 10.7144 12.1777 10.9607C12.0044 11.207 11.782 11.4055 11.5106 11.5563C11.2393 11.7071 10.8925 11.7825 10.4704 11.7825H9.88999ZM16.1774 11.6769V3.95663H19.2227C19.8081 3.95663 20.3069 4.06849 20.719 4.29215C21.131 4.51331 21.4451 4.82115 21.6612 5.21573C21.8798 5.60775 21.9891 6.06011 21.9891 6.5728C21.9891 7.08545 21.8785 7.53784 21.6574 7.92987C21.4363 8.32193 21.116 8.62726 20.6964 8.8459C20.2793 9.06455 19.7742 9.17385 19.1813 9.17385H17.2403V7.86579H18.9174C19.2315 7.86579 19.4903 7.81175 19.6938 7.70369C19.8999 7.59311 20.0531 7.44106 20.1536 7.24755C20.2567 7.05155 20.3082 6.82661 20.3082 6.5728C20.3082 6.31647 20.2567 6.09277 20.1536 5.9018C20.0531 5.70828 19.8999 5.55874 19.6938 5.45319C19.4878 5.34513 19.2265 5.29109 18.9099 5.29109H17.8094V11.6769H16.1774ZM27.7187 11.6769L25.2388 8.38601H24.681V11.6769H23.0491V3.95663H24.681V7.04023H25.0089L27.5718 3.95663H29.6032L26.5919 7.53784L29.7426 11.6769H27.7187ZM31.8938 11.6769H30.145L32.8096 3.95663H34.9126L37.5736 11.6769H35.8249L33.8913 5.72084H33.8309L31.8938 11.6769ZM31.7844 8.64234H35.9151V9.9165H31.7844V8.64234Z" fill="black"/>
<path d="M53.0944 18.0462V10.3259H56.1396C56.7227 10.3259 57.2201 10.4302 57.6322 10.6388C58.0465 10.8448 58.362 11.1376 58.5782 11.5171C58.7968 11.894 58.9058 12.3376 58.9058 12.8478C58.9058 13.3605 58.7954 13.8015 58.5743 14.1709C58.3532 14.5378 58.0327 14.8193 57.6131 15.0154C57.196 15.2113 56.6912 15.3094 56.0983 15.3094H54.0591V13.9975H55.8343C56.146 13.9975 56.4046 13.9548 56.6109 13.8694C56.8168 13.7839 56.9699 13.6557 57.0704 13.4849C57.1734 13.314 57.225 13.1016 57.225 12.8478C57.225 12.5914 57.1734 12.3753 57.0704 12.1994C56.9699 12.0235 56.8154 11.8903 56.607 11.7998C56.4007 11.7068 56.1407 11.6603 55.8269 11.6603H54.7263V18.0462H53.0944ZM57.2629 14.5328L59.181 18.0462H57.3796L55.5025 14.5328H57.2629ZM64.8269 10.3259H66.4589V15.3395C66.4589 15.9025 66.3244 16.395 66.0556 16.8172C65.7892 17.2395 65.4159 17.5687 64.9362 17.8049C64.4562 18.0386 63.8972 18.1555 63.259 18.1555C62.6183 18.1555 62.0579 18.0386 61.5782 17.8049C61.0981 17.5687 60.7253 17.2395 60.4589 16.8172C60.1925 16.395 60.0591 15.9025 60.0591 15.3395V10.3259H61.6911V15.2001C61.6911 15.4941 61.7551 15.7555 61.8835 15.9841C62.0141 16.2128 62.1973 16.3925 62.4336 16.5232C62.67 16.6539 62.9448 16.7192 63.259 16.7192C63.5756 16.7192 63.8508 16.6539 64.0843 16.5232C64.3207 16.3925 64.5029 16.2128 64.6309 15.9841C64.7615 15.7555 64.8269 15.4941 64.8269 15.2001V10.3259ZM74.2575 10.3259V18.0462H72.848L69.49 13.1871H69.4334V18.0462H67.8014V10.3259H69.2335L72.5653 15.1812H72.6333V10.3259H74.2575Z" fill="black"/>
</g>
<defs>
<linearGradient id="paint0_linear_3_58" x1="48.5756" y1="0" x2="48.5756" y2="4.25925" gradientUnits="userSpaceOnUse">
<stop stop-color="#628EFF"/>
<stop offset="1" stop-color="#B5CAFF"/>
</linearGradient>
<linearGradient id="paint1_linear_3_58" x1="44.7524" y1="2.26646" x2="44.7524" y2="23" gradientUnits="userSpaceOnUse">
<stop stop-color="#628EFF"/>
<stop offset="1" stop-color="#B5CAFF"/>
</linearGradient>
<clipPath id="clip0_3_58">
<rect width="75" height="23" fill="white"/>
</clipPath>
</defs>
</svg>
