<svg width="164" height="218" viewBox="0 0 164 218" fill="none" xmlns="http://www.w3.org/2000/svg">
<ellipse cx="82" cy="187" rx="82" ry="31" fill="black" fill-opacity="0.15"/>
<path d="M55.6594 44.0351C53.6361 44.0351 51.2793 45.3512 49.806 46.6515C48.1297 48.131 47.376 50.0804 45.8358 51.7334C44.0128 53.6899 41.2342 56.2714 40.1859 58.6266C39.3548 60.4937 37.306 61.5163 36.9028 63.7085C36.062 68.28 35.8536 72.7663 35.9612 77.4446C36.1291 84.748 39.1679 91.5033 39.1679 98.879C39.1679 112.81 38.1343 127.197 40.644 140.842C42.3006 149.849 49.8292 157.191 57.1864 162.226C58.508 163.131 59.2941 164.271 60.5967 165.144C64.1716 167.542 67.5752 168.85 71.7947 169.924C77.3432 171.337 83.5003 171.283 89.2025 171.283C92.6493 171.283 95.6733 172.382 98.9753 173.296C101.422 173.973 104.641 174 107.196 174C109.726 174 109.936 171.187 111.293 169.723C113.493 167.351 114.732 164.023 116.332 161.22C118.116 158.096 120.834 154.425 121.626 150.905C122.244 148.157 123 145.902 123 143.006C123 139.127 122.542 135.275 122.542 131.433C122.542 127.859 122.402 123.935 122.058 120.364C121.664 116.269 117.533 113.585 116.129 109.948C114.732 106.333 113.153 102.919 111.089 99.6337C109.071 96.4196 108.129 92.3483 106.483 88.8914C105.543 86.9176 103.915 85.4663 103.073 83.4321C102.331 81.6403 101.404 79.9417 100.553 78.1993C98.5303 74.0572 96.6655 68.2562 96.074 63.7085C95.1634 56.7073 93.0869 50.6775 90.5768 44.1357C89.7102 41.8773 87.7784 39.1785 86.3521 37.1419C85.1542 35.4314 82.2865 31.3934 80.1677 30.9279C75.1695 29.83 70.499 27.9134 65.1777 27.3807C58.897 26.752 50.9869 24.9586 44.8432 26.8272C40.6859 28.0917 36.3379 28.3536 32.0928 29.1166C30.6341 29.3787 29.7266 31.9798 29.5733 33.1921C28.8177 39.1669 29.5478 45.7231 29.5478 51.7334C29.5478 55.1882 28.6067 58.6802 29.1915 62.1487C30.3183 68.8321 30.8774 75.6628 32.0928 82.3252C33.5541 90.3357 36.1336 98.0754 38.6843 105.797C41.3631 113.907 42.7833 122.37 45.9376 130.326C50.4712 141.762 63.5414 151.279 75.4595 153.974C80.3102 155.072 85.4257 155.022 90.3732 154.981C93.4144 154.955 96.4586 154.809 98.3645 152.163C104.031 144.298 105.928 132.813 105.032 123.408C104.471 117.514 101.463 112.181 98.9244 106.929C95.6304 100.114 92.1429 93.3791 88.668 86.6523C85.4637 80.4492 83.4523 73.9068 81.0585 67.3815C79.2649 62.4923 76.5986 57.9311 74.4415 53.1925C74.218 52.7015 72.7728 49.6297 71.9474 49.6705C69.182 49.8071 66.3711 55.5342 65.3813 57.3687C61.915 63.7935 60.8791 71.0784 59.8841 78.1993C58.9356 84.9882 58.9814 92.1064 60.4949 98.8035C61.6849 104.069 63.842 108.903 65.2286 114.074C67.1107 121.093 69.3907 127.183 72.5073 133.773C73.9047 136.727 75.75 143.407 79.0734 138.628C81.361 135.339 82.467 132.4 82.8909 128.389C83.5896 121.778 80.7245 116.567 78.3862 110.602C76.3395 105.381 75.7667 99.5155 73.0418 94.577C71.7457 92.2282 69.6373 90.0599 68.588 87.6083C67.7647 85.6847 65.8401 88.7369 65.534 89.47C62.973 95.6043 63.8158 101.593 64.6178 107.936C65.4841 114.786 64.4225 124.137 68.4608 130.125C69.0888 131.056 68.3669 127.883 68.1808 126.779C67.6364 123.55 66.3128 120.636 64.6942 117.798C62.8426 114.55 60.6928 111.469 58.3317 108.565C57.7645 107.867 56.2568 106.65 56.0157 105.697C55.0713 101.962 60.7792 111.789 63.0654 114.904C65.7077 118.506 68.8902 121.63 71.6929 125.093" stroke="white" stroke-width="50" stroke-linecap="round"/>
<path d="M117.156 189C117.156 187.526 118.826 186.825 119.851 186.049C121.594 184.728 122.4 181.669 123.739 179.97C126.438 176.544 129.474 173.837 131.668 169.948C133.504 166.694 135.031 163.565 137.986 161.072C140.487 158.961 141.012 154.468 141.012 151.424C141.012 147.689 143 144.675 143 141.028C143 137.051 142.622 134.583 140.416 131.161C138.776 128.618 137.516 126.153 135.667 123.782C133.617 121.154 131.147 120.066 128.687 118.43" stroke="#191717" stroke-width="2" stroke-linecap="round"/>
<path d="M136.638 135.874C136.979 131.794 137.434 127.924 137.434 123.804C137.434 123.254 137.798 121.357 137.014 121.227C136.319 121.112 135.576 121.349 135.932 120.324C136.426 118.901 137.434 117.511 137.434 115.963C137.434 113.071 135.333 110.032 133.855 107.637C132.925 106.131 132.715 104.658 131.381 103.276C129.657 101.49 128 98.9907 127.118 96.6466C125.533 92.4301 122.173 88.785 120.933 84.3343C120.399 82.4166 119.82 80.1135 118.548 78.5635C117.774 77.6199 117.828 77.1802 117.466 76.0967C117.326 75.6793 116.774 73.854 116.538 73.6518C116.032 73.2199 114.963 70.2307 114.793 69.467C114.436 67.8644 113.486 66.289 113.202 64.7315C112.913 63.1429 112.95 63.2094 111.789 62.3086C110.489 61.3007 109.83 59.4875 108.718 58.2559C106.923 56.2669 103.665 55.4707 101.164 54.5116C97.6618 53.1684 94.8884 48.9433 90.915 50.2386C86.4301 51.7006 81.591 51.428 76.9108 51.428C74.8966 51.428 73.2699 51.5227 71.3444 52.2209C69.7436 52.8014 67.775 52.6826 66.3966 53.4323C64.4788 54.4754 62.6863 55.4143 60.7419 56.3837C59.4124 57.0466 57.0099 58.5997 56.1253 59.7757C53.7656 62.9131 48.2268 64.9178 44.595 65.7226C43.0529 66.0643 42.1231 67.4835 40.7958 68.2556C38.9189 69.3473 36.8044 69.8351 34.876 70.7004C32.9327 71.5724 30.9876 72.9253 28.9342 73.6078C26.8864 74.2884 25.4168 75.9995 23.412 76.7134C22.0271 77.2066 18.2886 65.4838 17.669 63.6302C17.0366 61.7383 17.5875 59.4683 16.5645 57.6833C15.4513 55.7406 15.832 53.159 15.2834 51.0315C14.6496 48.5739 15.1896 45.8586 14.4882 43.4107C13.8624 41.2266 14.179 38.7149 14.179 36.4506C14.179 33.0068 13.117 27.4749 16.1669 25.0853C16.9289 24.4884 16.9193 23.4454 17.4481 22.9709C17.6904 22.7534 18.1711 22.9053 18.4642 22.7066C18.8889 22.4186 18.9842 21.8256 19.3698 21.4731C21.5874 19.4461 23.9287 17.6752 26.5265 16.1209C28.2442 15.0932 31.0865 13.7524 33.0869 13.3897C34.8337 13.073 36.7888 13.174 38.4323 12.3545C41.0611 11.0439 45.6781 10.5925 48.5931 10.5925C53.504 10.5925 58.4093 9.1502 63.3041 9.00664C67.4088 8.88626 71.1254 10.4401 75.0995 10.5925C76.5483 10.6481 79.8997 10.9202 81.0634 11.6938C81.5537 12.0197 82.5502 11.9073 83.1618 12.1783C83.7074 12.4201 84.0255 13.3367 84.5534 13.3677C86.4361 13.4781 91.8452 16.2962 92.1078 18.5217C92.248 19.7103 94.4009 21.3909 95.1118 22.3982C96.1087 23.8109 97.6122 24.9224 98.2926 26.473C99.8354 29.9895 101.638 33.2218 103.417 36.5166C104.287 38.1281 105.022 39.7606 105.825 41.5385C106.555 43.157 107.667 44.8283 108.034 46.4722C108.238 47.3901 109.203 48.0666 109.514 48.9611C109.856 49.9462 110.051 50.6095 110.574 51.6042C111.233 52.8595 111.465 55.2932 112.584 56.1855C112.996 56.514 113.578 59.7232 113.578 60.3263C113.578 61.4331 114.373 62.416 114.373 63.7183" stroke="#191717" stroke-width="2" stroke-linecap="round"/>
<path d="M123.915 164.419C123.915 162.499 125.156 159.576 126.102 157.878C126.752 156.711 126.301 154.36 126.301 153.01C126.301 151.003 126.545 148.789 126.279 146.799C126.158 145.898 125.484 144.308 124.887 143.605C124.03 142.595 124.117 141.429 123.319 140.456C120.752 137.327 120.321 132.485 117.753 129.355C115.756 126.922 114.573 124.906 111.988 123.188" stroke="#191717" stroke-width="2" stroke-linecap="round"/>
<path d="M66.6616 163.627C65.0743 161.951 63.823 158.979 62.774 156.887C62.42 156.181 61.9719 155.915 61.4929 155.213C61.0293 154.533 60.4394 153.489 59.9025 152.922C58.2169 151.142 58.2307 146.78 59.1073 144.376C60.1774 141.442 59.7108 135.713 62.9065 133.892C63.6313 133.479 64.3898 131.388 64.8724 130.522C65.5726 129.265 66.4371 127.996 67.0592 126.756" stroke="#191717" stroke-width="2" stroke-linecap="round"/>
<path d="M39.2275 85.9202C40.4888 85.9202 41.533 84.7793 42.8943 84.7308C44.4924 84.6739 45.4875 84.2907 46.9807 83.9599C49.4577 83.411 54.7223 82.5576 56.9647 83.7617C58.739 84.7143 62.2267 84.2666 63.4588 85.6999C64.0542 86.3926 65.8552 85.6697 66.6616 86.0083C67.8826 86.5209 69.3132 86.0604 70.4388 86.9333C71.1795 87.5078 71.4674 88.9987 72.228 89.4002C76.3214 91.5611 77.4695 96.2001 79.5835 99.9945C80.5441 101.719 79.4495 104.482 79.3847 106.228C79.2755 109.169 79.14 111.965 78.9871 114.862C78.9471 115.62 78.7032 117.46 78.1919 118.034C77.8643 118.401 76.7793 119.529 76.6015 119.84C76.0459 120.809 74.7002 121.756 74.6136 122.879C74.554 123.651 73.8511 125.064 73.222 125.566C71.8426 126.667 74.5743 130.276 76.1156 129.046C77.0189 128.326 78.9402 124.823 79.7823 124.773C82.2313 124.63 84.4052 125.326 86.7182 125.985C87.6169 126.241 86.9589 127.827 88.4411 127.945C89.7918 128.053 91.2158 128.342 92.7042 128.342C94.9942 128.342 95.3085 126.212 97.6741 127.46C98.4229 127.856 99.526 128.105 100.281 128.319C100.613 128.414 103.03 128.307 102.357 127.637C101.945 127.226 102.118 130.174 100.767 128.826C99.7325 127.795 100.991 127.549 101.849 127.549C102.697 127.549 103.379 123 103.616 122.174C104.078 120.563 102.22 117.321 101.164 116.183C99.287 114.162 97.96 111.478 96.4813 109.223C94.9813 106.936 94.891 104.693 94.891 101.933C94.891 98.8433 94.5441 96.032 94.1179 93.0565C93.8053 90.8747 96.6213 88.8927 98.2926 87.8144C99.1732 87.2462 100.609 85.3282 101.429 84.5105C102.776 83.1676 103.423 82.1023 104.919 81.1626C107.15 79.7621 109.892 78.3874 112.584 78.3874C113.059 78.3874 116.982 78.2617 115.566 79.0922C114.34 79.8115 113.193 80.1914 111.988 80.9644C109.467 82.5802 107.227 84.7308 104.124 84.7308C102.972 84.7308 104.133 84.3473 104.632 83.9379C105.652 83.1 106.967 81.9904 108.21 81.5591C109.748 81.0258 111.339 80.3045 112.783 79.6649C114.098 79.0819 110.22 81.1348 109.69 81.471C108.442 82.2628 107.325 83.9799 105.825 84.3123C104.415 84.6246 100.318 86.0015 101.738 85.744C104.787 85.1912 107.798 82.5261 110.397 80.9424C111.88 80.0387 113.943 79.5768 110.994 79.5768C108.806 79.5768 107.291 80.7632 105.626 82.0437C104.474 82.9295 104.098 83.4837 103.483 84.7088C103.038 85.5963 105.579 84.0325 106.024 83.1449" stroke="#191717" stroke-width="2" stroke-linecap="round"/>
<path d="M61.4929 87.9024C60.4605 87.2024 59.9686 86.3166 58.7097 86.3166C56.9279 86.3166 55.1461 86.3166 53.3642 86.3166C50.4509 86.3166 46.6578 86.0753 43.7999 85.3254C41.7441 84.786 42.4286 85.2601 44.3962 85.0391C47.6854 84.6695 50.962 84.7307 54.2699 84.7307C55.956 84.7307 57.6421 84.7307 59.3282 84.7307C61.2418 84.7307 58.4958 85.1272 57.8924 85.1272C54.7934 85.1272 51.7186 84.7307 48.6152 84.7307C45.7356 84.7307 50.0616 84.7307 50.7578 84.7307C54.4691 84.7307 58.015 85.3183 61.4045 86.4047C66.5754 88.062 59.8589 87.8527 58.1354 87.1095C55.5518 85.9955 52.5484 86.5647 49.9626 85.9201" stroke="#191717" stroke-width="2" stroke-linecap="round"/>
<path d="M59.5049 100.193C59.8118 100.159 61.8905 98.3646 61.8905 98.0122C61.8905 97.2681 62.6857 97.2533 62.6857 96.4264C62.6857 95.4749 62.3123 95.5986 61.8905 94.8625C61.4492 94.0926 59.673 92.8495 58.9306 92.638C57.5388 92.2414 56.8406 91.8671 55.1314 91.8671C53.6768 91.8671 51.9506 91.9438 51.9506 93.8494C51.9506 94.7364 51.5439 97.0339 52.3482 97.5056C53.762 98.3349 54.9135 99.7014 56.7217 99.7963C58.0866 99.8679 59.2804 100.193 60.6977 100.193" stroke="#191717" stroke-width="2" stroke-linecap="round"/>
<path d="M56.3241 91.867C55.0073 91.867 53.6219 91.6384 52.5249 92.2635C51.2548 92.9871 51.0807 93.7035 50.1393 94.6422C48.5777 96.1994 47.577 98.267 47.577 100.589C47.577 102.659 49.339 105.864 51.553 106.448C54.3753 107.193 57.6406 106.14 60.4768 106.14C62.5584 106.14 64.3573 103.811 64.6957 101.955C65.2305 99.0221 65.3018 97.3697 63.7017 94.8625C62.3663 92.7699 59.9783 91.0741 57.3181 91.0741C56.684 91.0741 54.9222 90.7652 54.4245 91.1622C53.4393 91.9481 54.3546 92.6599 52.7458 92.6599" stroke="#191717" stroke-width="2" stroke-linecap="round"/>
<path d="M105.626 91.0741C104.936 91.0741 104.049 90.2434 103.329 90.7658C102.977 91.021 102.245 90.9492 102.048 91.2944C101.834 91.6673 101.757 92.4164 101.451 92.66C99.9274 93.8756 99.1542 95.8349 99.2645 97.814C99.3116 98.6598 100.779 99.2286 101.252 99.8844C102.151 101.129 103.236 101.712 104.411 102.395C106.271 103.477 108.172 103.364 110.397 103.364C112.217 103.364 114.373 102.587 114.373 100.391C114.373 99.2755 114.595 97.9182 114.351 96.8228C114.084 95.6258 112.894 94.9851 112.783 93.541C112.666 92.027 111.03 89.4883 109.403 89.4883C108.343 89.4883 107.283 89.4883 106.222 89.4883C104.965 89.4883 104.922 90.8817 104.036 91.4706" stroke="#191717" stroke-width="2" stroke-linecap="round"/>
<path d="M103.638 92.66C103.358 92.6949 102.558 94.1483 102.467 94.4661C102.162 95.5307 102.816 95.6629 103.24 96.4043C103.898 97.5512 105.612 97.814 106.819 97.814C110.715 97.814 110.795 95.216 110.795 91.8671" stroke="#191717" stroke-width="2" stroke-linecap="round"/>
<path d="M70.24 154.508H114.373" stroke="#191717" stroke-width="2" stroke-linecap="round"/>
<path d="M83.3607 186.225C80.7347 186.225 79.1236 185.522 76.6899 184.551C74.3316 183.61 73.507 181.48 70.6376 181.071C67.0088 180.554 63.5998 179.881 59.9025 179.881C57.4334 179.881 55.3542 180.015 53.1434 178.912C50.948 177.818 48.7527 176.121 46.4726 175.212C45.6755 174.894 44.8902 173.887 44.2196 173.34C43.4107 172.68 42.0838 172.378 41.4143 171.71C39.4851 169.786 37.6791 167.917 35.6492 166.005C34.8632 165.265 33.9247 164.709 33.2636 163.803C32.3934 162.61 31.8721 161.887 31.0989 160.675C27.8116 155.524 28.2056 150.317 28.4925 144.596C28.581 142.83 28.4211 140.583 28.9121 138.87C29.8548 135.58 28.6171 132.157 28.4925 128.738C28.2863 123.086 26.9021 117.564 26.9021 111.866C26.9021 106.165 27.1728 100.389 26.4161 94.7304C25.9204 91.0231 25.3117 87.4816 25.3117 83.7396C25.3117 81.5549 24.1189 79.5026 24.1189 77.5945" stroke="#191717" stroke-width="2" stroke-linecap="round"/>
<path d="M52.3481 181.467C52.3481 183.214 52.7457 184.533 52.7457 186.225" stroke="#191717" stroke-width="2" stroke-linecap="round"/>
</svg>
