<svg width="144" height="200" viewBox="0 0 144 200" fill="none" xmlns="http://www.w3.org/2000/svg">
<path d="M51.6594 44.0351C49.6361 44.0351 47.2793 45.3512 45.806 46.6515C44.1297 48.131 43.376 50.0804 41.8358 51.7334C40.0128 53.6899 37.2342 56.2714 36.1859 58.6266C35.3548 60.4937 33.306 61.5163 32.9028 63.7085C32.062 68.28 31.8536 72.7663 31.9612 77.4446C32.1291 84.748 35.1679 91.5033 35.1679 98.879C35.1679 112.81 34.1343 127.197 36.644 140.842C38.3006 149.849 45.8292 157.191 53.1864 162.226C54.508 163.131 55.2941 164.271 56.5967 165.144C60.1716 167.542 63.5752 168.85 67.7947 169.924C73.3432 171.337 79.5003 171.283 85.2025 171.283C88.6493 171.283 91.6733 172.382 94.9753 173.296C97.4225 173.973 100.641 174 103.196 174C105.726 174 105.936 171.187 107.293 169.723C109.493 167.351 110.732 164.023 112.332 161.22C114.116 158.096 116.834 154.425 117.626 150.905C118.244 148.157 119 145.902 119 143.006C119 139.127 118.542 135.275 118.542 131.433C118.542 127.859 118.402 123.935 118.058 120.364C117.664 116.269 113.533 113.585 112.129 109.948C110.732 106.333 109.153 102.919 107.089 99.6337C105.071 96.4196 104.129 92.3483 102.483 88.8914C101.543 86.9176 99.9145 85.4663 99.0727 83.4321C98.3312 81.6403 97.4041 79.9417 96.5532 78.1993C94.5303 74.0572 92.6655 68.2562 92.074 63.7085C91.1634 56.7073 89.0869 50.6775 86.5768 44.1357C85.7102 41.8773 83.7784 39.1785 82.3521 37.1419C81.1542 35.4314 78.2865 31.3934 76.1677 30.9279C71.1695 29.83 66.499 27.9134 61.1777 27.3807C54.897 26.752 46.9869 24.9586 40.8432 26.8272C36.6859 28.0917 32.3379 28.3536 28.0928 29.1166C26.6341 29.3787 25.7266 31.9798 25.5733 33.1921C24.8177 39.1669 25.5478 45.7231 25.5478 51.7334C25.5478 55.1882 24.6067 58.6802 25.1915 62.1487C26.3183 68.8321 26.8774 75.6628 28.0928 82.3252C29.5541 90.3357 32.1336 98.0754 34.6843 105.797C37.3631 113.907 38.7833 122.37 41.9376 130.326C46.4712 141.762 59.5414 151.279 71.4595 153.974C76.3102 155.072 81.4257 155.022 86.3732 154.981C89.4144 154.955 92.4586 154.809 94.3645 152.163C100.031 144.298 101.928 132.813 101.032 123.408C100.471 117.514 97.4627 112.181 94.9244 106.929C91.6304 100.114 88.1429 93.3791 84.668 86.6523C81.4637 80.4492 79.4523 73.9068 77.0585 67.3815C75.2649 62.4923 72.5986 57.9311 70.4415 53.1925C70.218 52.7015 68.7728 49.6297 67.9474 49.6705C65.182 49.8071 62.3711 55.5342 61.3813 57.3687C57.915 63.7935 56.8791 71.0784 55.8841 78.1993C54.9356 84.9882 54.9814 92.1064 56.4949 98.8035C57.6849 104.069 59.842 108.903 61.2286 114.074C63.1107 121.093 65.3907 127.183 68.5073 133.773C69.9047 136.727 71.75 143.407 75.0734 138.628C77.361 135.339 78.467 132.4 78.8909 128.389C79.5896 121.778 76.7245 116.567 74.3862 110.602C72.3395 105.381 71.7667 99.5155 69.0418 94.577C67.7457 92.2282 65.6373 90.0599 64.588 87.6083C63.7647 85.6847 61.8401 88.7369 61.534 89.47C58.973 95.6043 59.8158 101.593 60.6178 107.936C61.4841 114.786 60.4225 124.137 64.4608 130.125C65.0888 131.056 64.3669 127.883 64.1808 126.779C63.6364 123.55 62.3128 120.636 60.6942 117.798C58.8426 114.55 56.6928 111.469 54.3317 108.565C53.7645 107.867 52.2568 106.65 52.0157 105.697C51.0713 101.962 56.7792 111.789 59.0654 114.904C61.7077 118.506 64.8902 121.63 67.6929 125.093" stroke="white" stroke-width="50" stroke-linecap="round"/>
<path d="M113.156 189C113.156 187.526 114.826 186.825 115.851 186.048C117.594 184.728 118.4 181.669 119.739 179.969C122.438 176.544 125.474 173.837 127.668 169.948C129.504 166.693 131.031 163.565 133.986 161.071C136.487 158.961 137.012 154.467 137.012 151.424C137.012 147.689 139 144.674 139 141.028C139 137.051 138.622 134.582 136.416 131.16C134.776 128.617 133.516 126.153 131.667 123.782C129.617 121.154 127.147 120.065 124.687 118.43" stroke="#191717" stroke-width="2" stroke-linecap="round"/>
<path d="M132.638 135.874C132.979 131.794 133.434 127.924 133.434 123.804C133.434 123.254 133.798 121.357 133.014 121.227C132.319 121.112 131.576 121.349 131.932 120.324C132.426 118.901 133.434 117.511 133.434 115.963C133.434 113.071 131.333 110.032 129.855 107.637C128.925 106.131 128.715 104.658 127.381 103.276C125.657 101.49 124 98.9907 123.118 96.6466C121.533 92.4301 118.173 88.785 116.933 84.3343C116.399 82.4166 115.82 80.1135 114.548 78.5635C113.774 77.6199 113.828 77.1802 113.466 76.0967C113.326 75.6793 112.774 73.854 112.538 73.6518C112.032 73.2199 110.963 70.2307 110.793 69.467C110.436 67.8644 109.486 66.289 109.202 64.7315C108.913 63.1429 108.95 63.2094 107.789 62.3086C106.489 61.3007 105.83 59.4875 104.718 58.2559C102.923 56.2669 99.6649 55.4707 97.1641 54.5116C93.6618 53.1684 90.8884 48.9433 86.915 50.2386C82.4301 51.7006 77.591 51.428 72.9108 51.428C70.8966 51.428 69.2699 51.5227 67.3444 52.2209C65.7436 52.8014 63.775 52.6826 62.3966 53.4323C60.4788 54.4754 58.6863 55.4143 56.7419 56.3837C55.4124 57.0466 53.0099 58.5997 52.1253 59.7757C49.7656 62.9131 44.2268 64.9178 40.595 65.7226C39.0529 66.0643 38.1231 67.4835 36.7958 68.2556C34.9189 69.3473 32.8044 69.8351 30.876 70.7004C28.9327 71.5724 26.9876 72.9253 24.9342 73.6078C22.8864 74.2884 21.4168 75.9995 19.412 76.7134C18.0271 77.2066 14.2886 65.4838 13.669 63.6302C13.0366 61.7383 13.5875 59.4683 12.5645 57.6833C11.4513 55.7406 11.832 53.159 11.2834 51.0315C10.6496 48.5739 11.1896 45.8586 10.4882 43.4107C9.86241 41.2266 10.179 38.7149 10.179 36.4506C10.179 33.0068 9.11698 27.4749 12.1669 25.0853C12.9289 24.4884 12.9193 23.4454 13.4481 22.9709C13.6904 22.7534 14.1711 22.9053 14.4642 22.7066C14.8889 22.4186 14.9842 21.8256 15.3698 21.4731C17.5874 19.4461 19.9287 17.6752 22.5265 16.1209C24.2442 15.0932 27.0865 13.7524 29.0869 13.3897C30.8337 13.073 32.7888 13.174 34.4323 12.3545C37.0611 11.0439 41.6781 10.5925 44.5931 10.5925C49.504 10.5925 54.4093 9.1502 59.3041 9.00664C63.4088 8.88626 67.1254 10.4401 71.0995 10.5925C72.5483 10.6481 75.8997 10.9202 77.0634 11.6938C77.5537 12.0197 78.5502 11.9073 79.1618 12.1783C79.7074 12.4201 80.0255 13.3367 80.5534 13.3677C82.4361 13.4781 87.8452 16.2962 88.1078 18.5217C88.248 19.7103 90.4009 21.3909 91.1118 22.3982C92.1087 23.8109 93.6122 24.9224 94.2926 26.473C95.8354 29.9895 97.6379 33.2218 99.4171 36.5166C100.287 38.1281 101.022 39.7606 101.825 41.5385C102.555 43.157 103.667 44.8283 104.034 46.4722C104.238 47.3901 105.203 48.0666 105.514 48.9611C105.856 49.9462 106.051 50.6095 106.574 51.6042C107.233 52.8595 107.465 55.2932 108.584 56.1855C108.996 56.514 109.578 59.7232 109.578 60.3263C109.578 61.4331 110.373 62.416 110.373 63.7183" stroke="#191717" stroke-width="2" stroke-linecap="round"/>
<path d="M119.915 164.419C119.915 162.499 121.156 159.576 122.102 157.878C122.752 156.711 122.301 154.36 122.301 153.01C122.301 151.003 122.545 148.789 122.279 146.799C122.158 145.898 121.484 144.308 120.887 143.605C120.03 142.595 120.117 141.429 119.319 140.456C116.752 137.327 116.321 132.485 113.753 129.355C111.756 126.922 110.573 124.906 107.988 123.188" stroke="#191717" stroke-width="2" stroke-linecap="round"/>
<path d="M62.6616 163.626C61.0743 161.95 59.823 158.979 58.774 156.886C58.42 156.18 57.9719 155.915 57.4929 155.212C57.0293 154.533 56.4394 153.489 55.9025 152.922C54.2169 151.142 54.2307 146.78 55.1073 144.376C56.1774 141.441 55.7108 135.713 58.9065 133.892C59.6313 133.479 60.3898 131.388 60.8724 130.522C61.5726 129.265 62.4371 127.996 63.0592 126.755" stroke="#191717" stroke-width="2" stroke-linecap="round"/>
<path d="M35.2275 85.9199C36.4888 85.9199 37.533 84.779 38.8943 84.7305C40.4924 84.6736 41.4875 84.2905 42.9807 83.9596C45.4577 83.4108 50.7223 82.5574 52.9647 83.7614C54.739 84.714 58.2267 84.2663 59.4588 85.6997C60.0542 86.3923 61.8552 85.6694 62.6616 86.008C63.8826 86.5206 65.3132 86.0602 66.4388 86.9331C67.1795 87.5075 67.4674 88.9985 68.228 89.4C72.3214 91.5609 73.4695 96.1999 75.5835 99.9943C76.5441 101.718 75.4495 104.482 75.3847 106.228C75.2755 109.169 75.14 111.965 74.9871 114.862C74.9471 115.62 74.7032 117.46 74.1919 118.033C73.8643 118.401 72.7793 119.529 72.6015 119.839C72.0459 120.809 70.7002 121.756 70.6136 122.879C70.554 123.651 69.8511 125.064 69.222 125.566C67.8426 126.666 70.5743 130.276 72.1156 129.046C73.0189 128.325 74.9402 124.823 75.7823 124.773C78.2313 124.629 80.4052 125.326 82.7182 125.985C83.6169 126.241 82.9589 127.827 84.4411 127.945C85.7918 128.053 87.2158 128.341 88.7042 128.341C90.9942 128.341 91.3085 126.211 93.6741 127.46C94.4229 127.856 95.526 128.104 96.2806 128.319C96.6133 128.414 99.0296 128.307 98.3569 127.636C97.9452 127.226 98.1185 130.174 96.7665 128.826C95.7325 127.795 96.9906 127.548 97.8489 127.548C98.6966 127.548 99.3794 123 99.616 122.174C100.078 120.563 98.2201 117.32 97.1641 116.183C95.287 114.162 93.96 111.478 92.4813 109.223C90.9813 106.935 90.891 104.693 90.891 101.933C90.891 98.8431 90.5441 96.0318 90.1179 93.0562C89.8053 90.8744 92.6213 88.8925 94.2926 87.8141C95.1732 87.2459 96.6092 85.328 97.4292 84.5103C98.776 83.1673 99.4226 82.102 100.919 81.1624C103.15 79.7619 105.892 78.3872 108.584 78.3872C109.059 78.3872 112.982 78.2614 111.566 79.092C110.34 79.8113 109.193 80.1912 107.988 80.9642C105.467 82.58 103.227 84.7305 100.124 84.7305C98.9718 84.7305 100.133 84.347 100.632 83.9376C101.652 83.0998 102.967 81.9902 104.21 81.5589C105.748 81.0255 107.339 80.3043 108.783 79.6646C110.098 79.0816 106.22 81.1346 105.69 81.4707C104.442 82.2626 103.325 83.9796 101.825 84.3121C100.415 84.6244 96.318 86.0013 97.7384 85.7437C100.787 85.1909 103.798 82.5258 106.397 80.9421C107.88 80.0384 109.943 79.5765 106.994 79.5765C104.806 79.5765 103.291 80.763 101.626 82.0434C100.474 82.9293 100.098 83.4835 99.4834 84.7085C99.0384 85.596 101.579 84.0322 102.024 83.1447" stroke="#191717" stroke-width="2" stroke-linecap="round"/>
<path d="M57.4929 87.9025C56.4605 87.2025 55.9686 86.3167 54.7097 86.3167C52.9279 86.3167 51.1461 86.3167 49.3642 86.3167C46.4509 86.3167 42.6578 86.0755 39.7999 85.3255C37.7441 84.7861 38.4286 85.2603 40.3962 85.0392C43.6854 84.6696 46.962 84.7308 50.2699 84.7308C51.956 84.7308 53.6421 84.7308 55.3282 84.7308C57.2418 84.7308 54.4958 85.1273 53.8924 85.1273C50.7934 85.1273 47.7186 84.7308 44.6152 84.7308C41.7356 84.7308 46.0616 84.7308 46.7578 84.7308C50.4691 84.7308 54.015 85.3184 57.4045 86.4048C62.5754 88.0621 55.8589 87.8528 54.1354 87.1096C51.5518 85.9956 48.5484 86.5648 45.9626 85.9202" stroke="#191717" stroke-width="2" stroke-linecap="round"/>
<path d="M55.5049 100.193C55.8118 100.159 57.8905 98.3647 57.8905 98.0123C57.8905 97.2682 58.6857 97.2534 58.6857 96.4265C58.6857 95.475 58.3123 95.5987 57.8905 94.8627C57.4492 94.0927 55.673 92.8496 54.9306 92.6381C53.5388 92.2415 52.8406 91.8672 51.1314 91.8672C49.6768 91.8672 47.9506 91.944 47.9506 93.8495C47.9506 94.7365 47.5439 97.034 48.3482 97.5057C49.762 98.3351 50.9135 99.7015 52.7217 99.7964C54.0866 99.868 55.2804 100.193 56.6977 100.193" stroke="#191717" stroke-width="2" stroke-linecap="round"/>
<path d="M52.3241 91.8669C51.0073 91.8669 49.6219 91.6383 48.5249 92.2634C47.2548 92.987 47.0807 93.7034 46.1393 94.6421C44.5777 96.1993 43.577 98.2669 43.577 100.589C43.577 102.658 45.339 105.863 47.553 106.448C50.3753 107.193 53.6406 106.14 56.4768 106.14C58.5584 106.14 60.3573 103.811 60.6957 101.955C61.2305 99.022 61.3018 97.3696 59.7017 94.8624C58.3663 92.7698 55.9783 91.074 53.3181 91.074C52.684 91.074 50.9222 90.765 50.4245 91.1621C49.4393 91.948 50.3546 92.6598 48.7458 92.6598" stroke="#191717" stroke-width="2" stroke-linecap="round"/>
<path d="M101.626 91.0741C100.936 91.0741 100.049 90.2434 99.3288 90.7658C98.9768 91.021 98.2455 90.9492 98.0477 91.2944C97.834 91.6673 97.7567 92.4164 97.4513 92.66C95.9274 93.8756 95.1542 95.8349 95.2645 97.814C95.3116 98.6598 96.779 99.2286 97.2525 99.8844C98.151 101.129 99.2358 101.712 100.411 102.395C102.271 103.477 104.172 103.364 106.397 103.364C108.217 103.364 110.373 102.587 110.373 100.391C110.373 99.2755 110.595 97.9182 110.351 96.8228C110.084 95.6258 108.894 94.9851 108.783 93.541C108.666 92.027 107.03 89.4883 105.403 89.4883C104.343 89.4883 103.283 89.4883 102.222 89.4883C100.965 89.4883 100.922 90.8817 100.036 91.4706" stroke="#191717" stroke-width="2" stroke-linecap="round"/>
<path d="M99.638 92.6601C99.358 92.695 98.5583 94.1484 98.4673 94.4662C98.1623 95.5308 98.8155 95.6631 99.2404 96.4045C99.8976 97.5514 101.612 97.8141 102.819 97.8141C106.715 97.8141 106.795 95.2161 106.795 91.8672" stroke="#191717" stroke-width="2" stroke-linecap="round"/>
<path d="M66.24 154.508H110.373" stroke="#191717" stroke-width="2" stroke-linecap="round"/>
<path d="M79.3607 186.225C76.7347 186.225 75.1236 185.521 72.6899 184.551C70.3316 183.61 69.507 181.479 66.6376 181.071C63.0088 180.554 59.5998 179.881 55.9025 179.881C53.4334 179.881 51.3542 180.014 49.1434 178.912C46.948 177.818 44.7527 176.121 42.4726 175.212C41.6755 174.894 40.8902 173.887 40.2196 173.34C39.4107 172.68 38.0838 172.377 37.4143 171.71C35.4851 169.786 33.6791 167.917 31.6492 166.005C30.8632 165.265 29.9247 164.709 29.2636 163.803C28.3934 162.609 27.8721 161.886 27.0989 160.675C23.8116 155.524 24.2056 150.317 24.4925 144.596C24.581 142.83 24.4211 140.583 24.9121 138.87C25.8548 135.58 24.6171 132.157 24.4925 128.738C24.2863 123.086 22.9021 117.564 22.9021 111.866C22.9021 106.165 23.1728 100.389 22.4161 94.7302C21.9204 91.0229 21.3117 87.4814 21.3117 83.7394C21.3117 81.5546 20.1189 79.5024 20.1189 77.5942" stroke="#191717" stroke-width="2" stroke-linecap="round"/>
<path d="M48.3481 181.467C48.3481 183.214 48.7457 184.533 48.7457 186.225" stroke="#191717" stroke-width="2" stroke-linecap="round"/>
</svg>
