<svg width="164" height="182" viewBox="0 0 164 182" fill="none" xmlns="http://www.w3.org/2000/svg">
<path d="M75.5385 72.2607C73.7992 72.2607 71.93 74.0119 70.4316 74.8469C68.3868 75.9863 66.4476 77.2383 64.2834 78.179C61.9009 79.2146 58.5881 81.0133 56.0033 81.2127C54.9154 81.2967 54.1669 82.3461 53.2267 82.8042C52.279 83.2659 50.6938 83.4507 49.6568 83.4507C47.0879 83.4507 45.9075 83.4892 43.8805 81.7101C43.153 81.0715 42.1545 81.2471 41.451 80.5413C41.0159 80.1049 40.8866 79.4785 40.1866 79.4223C38.5161 79.2883 38.1572 78.0795 36.3688 78.0795C34.4862 78.0795 33.6557 79.9206 33.146 81.7101C31.1492 88.7201 29.8086 96.0907 30.0223 103.593C30.1043 106.471 32.1783 108.933 32.2535 111.65C32.3278 114.333 33.4439 117.42 34.2864 119.955C34.9933 122.082 35.3053 124.836 36.468 126.669C36.9638 127.451 36.972 128.514 37.41 129.33C37.9298 130.298 38.9459 131.33 39.2942 132.339C40.6606 136.298 43.546 139.09 46.4339 141.987C47.3259 142.882 48.5559 144.2 49.7559 144.673C52.9353 145.925 56.1784 145.519 59.4492 146.339C61.8777 146.948 64.7313 145.903 67.06 146.811C70.6041 148.194 76.0257 148.293 79.8522 148.353C87.664 148.475 95.5001 148.8 103.354 148.8C107.332 148.8 110.332 149.625 113.915 151.138C116.561 152.255 119.456 152.353 121.749 151.039C124.709 149.342 125.077 145.623 125.517 142.534C126.257 137.341 129.586 133.218 131.988 128.882C132.896 127.241 132.705 125.331 133.301 123.536C133.946 121.595 133.996 118.389 133.996 116.349C133.996 112.355 134.222 107.952 131.417 104.786C130.253 103.472 129.87 100.818 129.434 99.1168C128.92 97.1116 127.801 95.3245 127.302 93.3228C126.731 91.0311 127.335 88.6337 126.831 86.3602C126.393 84.3852 125.224 82.5728 124.724 80.5662C124.182 78.3928 123.144 76.4659 121.947 74.5982C120.673 72.6103 120.257 70.7774 119.27 68.6799C117.988 65.9581 116.845 62.5705 116.245 59.6284C115.776 57.3261 114.361 54.3684 114.361 52.0938C114.361 47.7986 111.182 45.0501 109.453 41.3762C107.887 38.0506 108.478 32.5886 104.346 31.0814C99.8336 29.4357 94.2206 29.9247 89.5702 30.8576C86.5804 31.4574 83.415 31.1921 80.4719 32.2253C77.3694 33.3145 74.6018 34.879 71.7207 36.5521C69.8709 37.6263 68.0755 39.4807 66.7129 41.1773C64.6591 43.7347 61.7317 45.4278 59.474 47.6924C57.6492 49.5228 52.9598 53.9091 50.103 53.9091C46.9322 53.9091 46.12 58.2871 44.9713 60.822C42.8535 65.4953 48.5039 69.88 51.2186 72.6586C57.2578 78.8399 64.0283 84.54 68.1508 92.2536C70.0604 95.8265 71.8591 98.7607 74.5469 101.802C76.8091 104.362 78.3426 107.439 80.6455 109.959C84.0651 113.701 88.6587 116.305 92.2476 119.905C98.3237 126 76.4565 125.973 72.4149 125.973" stroke="white" stroke-width="59" stroke-linecap="round"/>
<path d="M38.5273 166.676C38.5273 165.655 37.0566 164.243 36.0108 164.011C35.022 163.791 32.7097 161.778 31.9843 160.972C31.4048 160.328 30.7667 159.889 30.1389 159.294C29.5182 158.706 28.7038 158.717 28.1256 158.139C26.9771 156.99 25.7241 155.222 24.4347 154.336C23.871 153.948 22.2444 151.712 22.0673 151.092C21.652 149.639 19.8175 148.251 19.383 146.73C19.0053 145.408 18.0612 144.119 17.7426 142.685C17.5374 141.762 16.9115 140.985 16.736 140.02C16.5417 138.951 16.6236 137.901 16.3818 136.813C15.5126 132.902 15.3666 128.825 13.6975 125.07C13.278 124.126 12.7991 123.046 12.6723 122.031C12.527 120.869 11.5145 120.06 11.3674 119.03C11.0687 116.939 10.0066 115.557 10.0066 113.307C10.0066 108.081 10.0066 102.856 10.0066 97.63C10.0066 94.162 9 90.9037 9 87.4893C9 84.2176 9.01807 81.9429 10.6218 78.8958C11.4652 77.2933 11.3488 76.0057 11.3488 74.217C11.3488 69.8411 15.3575 67.8059 16.7919 64.0763C17.088 63.3064 18.2905 62.1889 18.8797 61.6343C19.8939 60.6798 20.6725 59.56 21.7318 58.6331C23.2173 57.3333 24.0726 55.3171 25.6091 54.122C26.7278 53.2519 27.3279 51.3626 28.2934 50.2447C29.5042 48.8427 30.3293 47.3699 31.6488 46.0504C32.7863 44.913 34.2205 44.1125 35.3397 42.9933C36.4589 41.8741 37.4279 40.6441 38.5459 39.5261C42.3459 35.7261 45.5868 30.7642 49.9356 27.5027C54.3043 24.2262 59.5206 21.4129 64.6247 19.4498C67.097 18.4989 69.2183 17.109 71.9133 16.5231C74.9491 15.8632 78.3007 15.08 81.2524 14.0066C82.9548 13.3876 85.1113 13.6965 86.9938 13.3542C88.9363 13.001 91.0704 13 93.0522 13C95.6805 13 98.3089 13 100.937 13C103.439 13 105.521 14.7591 107.573 15.9453C111.885 18.4363 116.958 19.6499 120.883 22.8611C124.062 25.4619 127.74 29.1986 129.719 32.7967C131.894 36.7518 133.347 41.3344 135.833 45.137C136.588 46.2913 136.504 48.3491 136.504 49.7227C136.504 52.0408 137.538 53.9563 138.648 55.9302C139.463 57.3798 139.761 59.1391 140.27 60.7209C140.923 62.753 141.706 64.6683 142.283 66.686C142.685 68.0922 143.303 69.4455 143.7 70.8616C144.024 72.0207 144.069 73.2531 144.706 74.2542C145.975 76.2483 147.04 79.2665 149.068 80.7413C150.369 81.6869 150.773 83.3634 151.622 84.6373C152.269 85.6076 153.281 87.4497 153.281 88.6637C153.281 93.2202 154.959 97.7333 154.959 102.328C154.959 106.008 155.294 109.741 155.294 113.326C155.294 115.042 155.706 117.313 155.22 118.955C154.782 120.434 155.38 122.559 154.362 123.802C153.46 124.905 153.317 128.615 153.281 129.953C153.228 131.929 152.61 133.87 152.61 135.807C152.61 139.759 151.664 145.557 149.087 148.706C147.689 150.414 146.953 152.893 145.75 154.783C145.462 155.236 145.608 155.791 145.545 156.293C145.476 156.85 145.035 157.035 144.911 157.468C144.737 158.079 144.332 158.547 144.203 159.127C143.778 161.038 141.77 162.726 140.792 164.327C140.019 165.592 138.746 166.112 137.846 167.012C136.835 168.024 135.758 168.045 134.752 168.95C134.044 169.587 131.744 168.889 130.8 169.361" stroke="#191717" stroke-width="3" stroke-linecap="round"/>
<path d="M56.9427 58.2389C56.9427 56.6247 55.5197 56.2022 54.8572 54.8773C54.3522 53.8671 52.6563 51.6018 51.6823 51.1732C50.734 50.756 49.9719 49.6021 48.9432 49.1345C47.4774 48.4682 46.0142 47.2575 44.4766 46.7844C42.187 46.0799 39.7956 45.0993 37.5509 44.232C36.6482 43.8833 36.0801 43.3916 35.0919 43.3916C34.4545 43.3916 33.2805 43.2879 32.7108 42.9714C31.7066 42.4136 30.3696 42.2711 29.209 42.2711C28.541 42.2711 25.5218 41.9 25.2871 41.4307" stroke="#191717" stroke-width="2" stroke-linecap="round"/>
<path d="M43.7761 46.7529C46.4401 46.7529 49.1109 48.2095 51.2776 49.5543C52.3845 50.2413 53.7338 50.4796 54.8416 51.0951C55.531 51.4781 56.7582 52.3557 57.5029 52.3557" stroke="#191717" stroke-width="2" stroke-linecap="round"/>
<path d="M100.924 16.2183C99.9725 16.3372 98.9933 19.0741 98.621 19.8601C97.72 21.762 97.0211 23.9268 95.9908 25.7585C95.0663 27.4021 93.8654 28.9902 93.096 30.7854C92.2407 32.7812 91.4097 34.7416 90.497 36.6683C89.5815 38.6011 87.9244 40.3654 87.7578 42.6135C87.6845 43.6037 87.1976 44.3473 87.1976 45.4771C87.1976 46.5605 86.8355 47.3048 86.6529 48.3096C86.1657 50.989 85.7176 53.6378 85.0187 56.278C84.817 57.0401 84.6763 58.1661 84.6763 58.9393C84.6763 59.429 84.4969 61.4754 84.8164 60.9003C85.2394 60.1388 84.9474 59.321 85.7969 58.737C86.5489 58.22 87.0066 56.6203 87.6178 55.8734C88.9251 54.2755 90.0317 52.4842 91.3996 50.9554C92.8774 49.3038 93.5736 46.741 94.7613 44.8546C95.1423 44.2494 96.0242 42.819 96.1464 42.1466C96.319 41.1973 97.1263 40.4541 97.267 39.4697C97.6035 37.1138 99.11 35.5387 100.24 33.6024C100.704 32.8057 101.386 32.0048 102.045 31.3457C103.128 30.2627 103.85 28.773 105.064 27.8284C106.6 26.6335 108.272 24.6436 109.313 23.0816C109.862 22.2576 111.286 19.5799 112.41 19.5799" stroke="#191717" stroke-width="2" stroke-linecap="round"/>
<path d="M129.779 59.3593C129.624 59.9772 128.225 60.1997 127.693 60.1997C127.037 60.1997 126.798 60.6216 126.246 60.7444C125.084 61.0026 122.706 60.2236 121.795 59.5149C120.859 58.7871 117.452 58.3276 117.452 57.1181C117.452 56.3919 117.452 55.6656 117.452 54.9393C117.452 53.6482 117.699 53.8726 118.231 52.9161C119.621 50.4133 122.677 49.8584 125.141 51.2664C125.414 51.4225 125.422 51.9711 125.717 52.2002C125.963 52.3922 126.394 52.2544 126.417 52.6359C126.462 53.4096 127.114 53.6336 127.475 54.3168C127.73 54.7982 128.257 55.3134 128.596 55.7797C128.952 56.269 128.977 57.5378 129.498 57.8963C129.967 58.2186 130.726 60.7504 130.884 61.4603C131.194 62.8578 132.346 64.4418 133.296 65.6624C134.128 66.7317 135.299 67.1223 135.381 68.6038C135.428 69.4386 136.45 70.147 136.502 71.125C136.543 71.9133 136.782 72.56 136.782 73.3662C136.782 74.7516 135.942 76.1044 135.942 77.4282C135.942 78.2415 134.327 81.1495 133.56 81.4902C133.372 81.5739 132.124 82.703 131.989 82.9064C131.594 83.4978 129.788 84.3984 129.078 84.5561C127.626 84.8789 126.743 85.9724 125.141 85.9724C120.896 85.9724 116.764 86.9337 112.69 84.7896C111.97 84.4103 111.66 83.8028 110.869 83.4511C109.884 83.0134 108.878 82.6499 107.928 82.1749C106.28 81.3512 103.79 80.4274 102.885 78.8444C102.549 78.256 102.087 77.4248 101.485 77.0702C100.855 76.7 100.778 75.7821 100.146 75.3271C98.4709 74.121 97.6767 72.6283 96.3799 71.1873C95.8821 70.6343 95.8818 67.4379 95.8818 66.6428C95.8818 64.5322 95.6017 62.4234 95.6017 60.3553C95.6017 58.6333 95.5034 56.5858 96.4421 55.0949C96.8363 54.4689 97.0902 53.4163 97.5627 52.9161C98.149 52.2953 99.0939 51.41 99.4614 50.675C101.249 47.1006 105.008 46.1027 108.613 44.7921C110.642 44.054 112.474 43.9517 114.651 43.9517C116.207 43.9517 117.196 44.9584 118.573 45.5702C119.902 46.1608 122.2 46.5248 122.993 47.8736C123.547 48.8158 123.964 49.6902 124.456 50.675" stroke="#191717" stroke-width="2" stroke-linecap="round"/>
<path d="M35.6521 72.526C36.6002 71.8364 40.0358 70.9543 41.2549 71.4677C42.6119 72.039 43.496 73.3897 43.496 74.8916C43.496 75.649 43.496 76.4064 43.496 77.1638C43.496 78.1709 42.7287 78.0342 42.3754 78.8291C41.9798 79.7191 40.1743 79.7606 39.2939 80.1519C38.3198 80.5849 36.9996 80.3698 35.9323 80.3698C34.1651 80.3698 34.2514 78.2252 34.2514 76.8681C34.2514 74.1606 34.1242 69.7881 36.1968 67.8881C36.7464 67.3843 36.9256 66.4901 37.473 65.9427C38.2798 65.136 39.3857 64.5724 40.1188 63.7172C40.9607 62.7349 43.5364 61.6361 44.8033 61.3827C46.2477 61.0938 47.7067 60.8067 49.161 60.5423C50.1842 60.3562 51.2203 60.6663 52.1803 60.2621C53.8045 59.5782 56.1828 59.6396 57.9386 59.6396C59.5117 59.6396 60.97 60.9992 61.7049 62.2854C62.7181 64.0583 64.7764 64.7432 66.7474 64.9622C67.6798 65.0658 69.0316 67.4134 69.2687 68.1838C69.5351 69.0497 70.2384 69.618 70.3737 70.565C70.4576 71.1526 70.5597 72.1515 70.8872 72.5882C71.8951 73.932 71.3837 76.2637 71.8522 77.7863C72.316 79.2936 72.1077 80.8811 71.6498 82.3463C71.0819 84.1639 69.6961 85.352 68.4438 86.813C67.1644 88.3056 65.8337 89.8434 64.4441 91.2329C61.6773 93.9998 58.162 95.6786 55.4018 98.4387C54.4275 99.4131 53.412 100.384 52.118 100.882C51.2148 101.23 50.914 101.66 49.8769 101.66C49.114 101.66 48.5163 102.221 47.8381 102.221C46.3311 102.221 44.2701 100.522 42.9357 99.855C42.2257 99.5 41.1214 99.5348 40.5545 98.9679C40.0412 98.4545 39.3267 97.5892 38.7336 97.2404C37.6453 96.6002 36.9726 94.9614 36.4303 93.8164C36.1009 93.1211 35.6959 92.0618 35.6521 91.2952C35.6 90.3825 35.0055 89.716 34.8273 88.914C33.4664 82.7901 32.4662 76.6568 35.372 70.8451" stroke="#191717" stroke-width="2" stroke-linecap="round"/>
<path d="M53.0208 99.9792C50.8707 98.7698 49.0374 100.787 48.0405 102.781C47.0179 104.826 45.4646 106.812 44.3987 108.944C43.3082 111.125 40.397 112.345 39.2317 114.546C37.9883 116.895 37.6132 120.35 37.6132 122.951C37.6132 124.655 38.5255 125.562 39.1539 127.028C39.7179 128.344 41.1878 129.452 41.255 130.794C41.2808 131.311 41.7636 132.361 42.0954 132.755C42.5096 133.247 42.3007 133.74 42.3911 134.327C42.6922 136.285 43.7406 137.383 44.6789 138.918C46.5684 142.01 50.6441 141.372 53.581 142.84C56.4177 144.259 57.3052 148.163 59.0282 150.669C62.1354 155.188 65.5756 159.444 68.9886 163.711C69.9432 164.904 72.0007 166.31 73.6109 166.668C74.8992 166.954 75.7254 167.7 77.1126 167.773C77.8073 167.809 79.7431 168.189 80.1941 168.753C81.5671 170.469 85.994 170.532 88.0224 170.278C89.0852 170.145 90.4075 170.089 91.3997 169.671C92.918 169.032 94.7413 169.341 96.2709 168.753C97.5651 168.255 98.4797 167.363 99.6482 166.714C100.698 166.131 101.606 164.819 102.73 164.411C103.392 164.17 104.968 163.031 105.344 162.45C106.01 161.422 107.088 160.021 107.928 159.088C109.895 156.902 110.358 153.577 112.41 151.525C113.543 150.392 113.648 148.71 114.511 147.463C115.084 146.635 116.275 144.616 116.332 143.681C116.399 142.58 117.476 139.965 118.293 139.323C118.993 138.773 119.251 137.842 119.974 137.378C120.741 136.885 121.545 136.349 122.059 135.619C122.973 134.32 124.323 133.199 125.436 132.086C126.274 131.248 126.727 130.267 127.475 129.331C127.932 128.76 128.362 127.318 128.674 126.592C129.518 124.622 131.698 124.04 133.14 122.67C133.651 122.185 134.198 121.518 134.759 121.114C135.276 120.742 135.443 119.803 135.817 119.589C136.895 118.973 137.478 116.165 138.401 115.169C138.687 114.859 138.999 114.139 139.023 113.706C139.054 113.147 139.441 113.153 139.568 112.71C139.797 111.909 140.193 110.953 140.144 110.064C140.107 109.411 137.971 108.294 137.467 107.823C135.922 106.381 133.79 105.854 132.16 104.586C129.617 102.609 126.295 102.065 124.16 99.5746C123.025 98.2501 120.673 98.203 119.133 97.7381C117.585 97.2707 115.812 97.1778 114.2 97.1778C112.275 97.1778 110.35 97.1778 108.426 97.1778C106.354 97.1778 104.082 96.8434 102.154 97.598C100.713 98.1618 99.2347 98.3359 97.7183 98.5785C96.6049 98.7567 95.596 99.357 94.4812 99.4189C93.1363 99.4937 91.6581 100.539 90.4036 100.539C88.7052 100.539 86.5298 100.935 84.9565 101.598C84.4472 101.812 83.5868 101.66 83.0578 101.66C82.0303 101.66 81.0717 101.94 80.0541 101.94C78.4712 101.94 76.8064 102.5 75.1517 102.5C73.1025 102.5 71.0533 102.5 69.0042 102.5C66.8208 102.5 64.5655 102.62 62.5454 101.722C61.31 101.173 59.6304 101.037 58.4834 100.399C57.6055 99.9117 55.4211 99.4189 54.4214 99.4189C53.3009 99.4189 52.1803 99.4189 51.0598 99.4189" stroke="#191717" stroke-width="2" stroke-linecap="round"/>
<path d="M61.4249 107.263C61.2698 108.814 60.2091 110.939 59.5262 112.305C59.1591 113.039 58.3013 114.722 57.6275 115.107C57.1565 115.376 56.8659 115.712 56.5069 116.071C56.1268 116.452 55.3171 116.127 54.8417 116.383C54.3331 116.657 54.172 117.068 53.5811 117.068C52.6399 117.068 51.9431 116.6 51.0598 116.507C49.8089 116.376 49.4281 114.691 48.9588 113.846C48.0461 112.203 46.6373 110.243 46.0173 108.383" stroke="#191717" stroke-width="2" stroke-linecap="round"/>
<path d="M61.705 108.384C61.9337 112.501 68.1061 116.992 71.9456 115.247C73.9587 114.332 75.8448 113.248 76.6145 111.247C77.3062 109.449 76.3851 106.533 77.3927 105.022" stroke="#191717" stroke-width="2" stroke-linecap="round"/>
<path d="M77.3927 110.905C77.6091 112.853 81.8753 114.738 83.5557 114.827C84.818 114.893 86.0055 115.107 87.2598 115.107C89.1403 115.107 89.7925 114.106 91.3373 113.488C92.7497 112.923 93.479 111.471 94.7613 110.687C95.8974 109.993 96.1705 108.925 96.66 107.823C97.6184 105.667 96.4421 103.346 96.4421 101.1" stroke="#191717" stroke-width="2" stroke-linecap="round"/>
<path d="M97.2825 107.263C99.069 109.273 101.301 111.745 104.286 111.745C105.513 111.745 107.613 111.493 108.55 112.243C109.202 112.765 111.009 112.15 111.85 112.523C112.867 112.975 114.927 111.9 115.772 111.465C116.918 110.874 118.196 110.109 119.133 109.224C120.021 108.386 120.475 106.209 120.534 105.022C120.582 104.054 121.158 101.208 121.935 100.82" stroke="#191717" stroke-width="2" stroke-linecap="round"/>
<path d="M120.814 109.504C121.778 109.504 122.315 110.38 123.117 110.905C123.501 111.155 123.984 111.719 124.456 111.745C124.73 111.76 125.288 111.626 125.514 111.807C126.058 112.242 126.867 112.593 127.537 112.928C127.887 113.103 128.235 113.098 128.44 113.426C128.756 113.932 129.328 113.486 129.716 113.768C131.09 114.767 133.556 113.263 134.883 112.803C136.284 112.318 137.799 110.905 139.303 110.905" stroke="#191717" stroke-width="2" stroke-linecap="round"/>
<path d="M112.41 150.964C111.922 150.903 111.03 149.661 110.605 149.284C109.827 148.592 108.918 148.723 107.928 148.723C106.549 148.723 105.143 150.145 104.006 150.747C102.383 151.606 101.765 152.92 101.765 154.886C101.765 155.788 101.915 156.862 102.263 157.688C102.386 157.98 102.325 158.954 102.325 158.637C102.325 158.045 102.383 157.42 102.309 156.832C101.697 151.933 97.9588 150.684 93.5007 150.684C92.074 150.684 89.7903 153.019 88.8784 154.062C87.228 155.948 87.4777 157.829 87.4777 160.209C87.4777 161.537 87.7578 161.727 87.7578 160.209C87.7578 158.941 87.8273 157.982 87.2598 156.847C86.7082 155.744 84.2664 154.046 82.9955 154.046C81.9619 154.046 80.9278 154.326 79.8517 154.326C78.2713 154.326 76.6838 154.046 75.1516 154.046C73.9224 154.046 71.6061 154.708 70.5293 155.307C68.4227 156.477 69.2687 158.286 69.2687 160.349C69.2687 162.287 68.9024 156.276 67.7124 154.746C66.5023 153.19 67.168 151.865 64.9421 151.229C64.2095 151.02 63.5375 150.964 62.6855 150.964C61.6343 150.964 61.0011 151.805 60.0242 151.805" stroke="#191717" stroke-width="2" stroke-linecap="round"/>
</svg>
