<svg xmlns="http://www.w3.org/2000/svg" width="203" height="203" fill="none"><path stroke="#fff" stroke-linecap="round" stroke-width="50" d="M78.66 46.035c-2.024 0-4.38 1.316-5.854 2.617-1.676 1.479-2.43 3.428-3.97 5.081-1.823 1.957-4.602 4.538-5.65 6.894-.831 1.867-2.88 2.89-3.283 5.081-.841 4.572-1.05 9.058-.942 13.737.168 7.303 3.207 14.058 3.207 21.434 0 13.931-1.034 28.318 1.476 41.963 1.657 9.007 9.185 16.349 16.542 21.384 1.322.905 2.108 2.045 3.41 2.918 3.576 2.398 6.98 3.706 11.199 4.78 5.548 1.413 11.705 1.359 17.407 1.359 3.447 0 6.471 1.099 9.773 2.013 2.447.677 5.666.704 8.221.704 2.53 0 2.74-2.813 4.097-4.277 2.2-2.372 3.439-5.7 5.039-8.503 1.784-3.124 4.502-6.795 5.294-10.315.618-2.748 1.374-5.003 1.374-7.899 0-3.879-.458-7.731-.458-11.573 0-3.574-.14-7.498-.484-11.069-.394-4.095-4.525-6.779-5.929-10.416-1.397-3.615-2.976-7.029-5.04-10.314-2.018-3.214-2.96-7.286-4.606-10.743-.94-1.973-2.568-3.425-3.41-5.459-.742-1.792-1.669-3.49-2.52-5.233-2.023-4.142-3.888-9.943-4.479-14.49-.911-7.002-2.987-13.032-5.497-19.573-.867-2.259-2.799-4.958-4.225-6.994-1.198-1.71-4.066-5.749-6.184-6.214-4.999-1.098-9.669-3.015-14.99-3.547-6.281-.629-14.191-2.422-20.335-.554-4.157 1.265-8.505 1.527-12.75 2.29-1.459.262-2.366 2.863-2.52 4.075-.755 5.975-.025 12.531-.025 18.541 0 3.455-.941 6.947-.357 10.416 1.127 6.683 1.686 13.514 2.902 20.176 1.461 8.01 4.04 15.75 6.591 23.472 2.68 8.11 4.1 16.573 7.254 24.529 4.533 11.436 17.603 20.953 29.522 23.648 4.85 1.098 9.966 1.048 14.913 1.007 3.041-.026 6.086-.172 7.991-2.818 5.667-7.865 7.564-19.35 6.668-28.755-.561-5.894-3.569-11.227-6.108-16.479-3.294-6.815-6.781-13.55-10.256-20.277-3.204-6.203-5.216-12.745-7.61-19.27-1.793-4.89-4.46-9.45-6.617-14.19-.223-.49-1.668-3.562-2.494-3.522-2.765.137-5.576 5.864-6.566 7.699-3.466 6.424-4.502 13.71-5.497 20.83-.948 6.79-.903 13.907.61 20.605 1.19 5.265 3.348 10.099 4.735 15.27 1.882 7.019 4.162 13.109 7.278 19.699 1.398 2.954 3.243 9.634 6.566 4.855 2.288-3.289 3.394-6.228 3.818-10.239.699-6.611-2.166-11.822-4.505-17.787-2.046-5.221-2.62-11.087-5.344-16.025-1.296-2.349-3.405-4.517-4.454-6.969-.823-1.923-2.748 1.129-3.054 1.862-2.561 6.134-1.718 12.123-.916 18.466.866 6.85-.195 16.201 3.843 22.189.628.931-.094-2.242-.28-3.346-.545-3.229-1.868-6.143-3.487-8.981-1.851-3.248-4.001-6.329-6.362-9.233-.567-.698-2.075-1.915-2.316-2.868-.945-3.735 4.763 6.092 7.05 9.207 2.642 3.602 5.824 6.726 8.627 10.189"/><path stroke="#191717" stroke-linecap="round" stroke-width="2" d="M140.156 191c0-1.474 1.67-2.175 2.695-2.951 1.743-1.321 2.549-4.38 3.888-6.079 2.699-3.426 5.735-6.133 7.929-10.022 1.836-3.254 3.363-6.383 6.318-8.876 2.501-2.111 3.026-6.604 3.026-9.648 0-3.735 1.988-6.749 1.988-10.396 0-3.977-.378-6.445-2.584-9.867-1.64-2.543-2.9-5.008-4.749-7.379-2.05-2.628-4.52-3.716-6.98-5.352"/><path stroke="#191717" stroke-linecap="round" stroke-width="2" d="M159.638 137.874c.341-4.08.796-7.95.796-12.07 0-.55.364-2.447-.42-2.577-.695-.115-1.438.122-1.082-.903.494-1.423 1.502-2.813 1.502-4.361 0-2.892-2.101-5.931-3.579-8.326-.93-1.506-1.14-2.979-2.474-4.361-1.724-1.786-3.381-4.285-4.263-6.63-1.585-4.216-4.945-7.861-6.185-12.312-.534-1.917-1.113-4.22-2.385-5.77-.774-.944-.72-1.384-1.082-2.467-.14-.418-.692-2.243-.928-2.445-.506-.432-1.575-3.421-1.745-4.185-.357-1.603-1.307-3.178-1.591-4.736-.289-1.588-.252-1.522-1.413-2.422-1.3-1.008-1.959-2.822-3.071-4.053-1.795-1.99-5.053-2.785-7.554-3.744-3.502-1.344-6.276-5.569-10.249-4.273-4.485 1.462-9.324 1.189-14.004 1.189-2.014 0-3.641.095-5.567.793-1.6.58-3.569.462-4.947 1.211a174.685 174.685 0 0 1-5.655 2.952c-1.33.663-3.732 2.216-4.617 3.392-2.36 3.137-7.898 5.142-11.53 5.947-1.542.341-2.472 1.76-3.8 2.533-1.876 1.091-3.99 1.58-5.919 2.444-1.943.872-3.888 2.225-5.942 2.908-2.048.68-3.517 2.391-5.522 3.105-1.385.494-5.123-11.23-5.743-13.083-.632-1.892-.081-4.162-1.104-5.947-1.114-1.942-.733-4.524-1.282-6.651-.633-2.458-.093-5.173-.795-7.621-.626-2.184-.309-4.696-.309-6.96 0-3.444-1.062-8.976 1.988-11.366.762-.597.752-1.64 1.281-2.114.242-.218.723-.066 1.016-.264.425-.288.52-.881.906-1.234a44.025 44.025 0 0 1 7.157-5.352c1.717-1.028 4.56-2.369 6.56-2.731 1.747-.317 3.702-.216 5.345-1.036 2.63-1.31 7.246-1.761 10.161-1.761 4.911 0 9.816-1.443 14.711-1.586 4.105-.12 7.821 1.433 11.796 1.585 1.448.056 4.8.328 5.963 1.102.491.326 1.487.213 2.099.484.545.242.864 1.159 1.391 1.19 1.883.11 7.292 2.928 7.555 5.154.14 1.188 2.293 2.869 3.004 3.876.997 1.413 2.5 2.524 3.181 4.075 1.542 3.517 3.345 6.749 5.124 10.044.87 1.611 1.605 3.244 2.408 5.021.73 1.619 1.842 3.29 2.209 4.934.204.918 1.169 1.595 1.48 2.49.342.984.537 1.647 1.06 2.642.659 1.255.891 3.69 2.01 4.581.412.329.994 3.538.994 4.141 0 1.107.795 2.09.795 3.392M146.915 166.419c0-1.921 1.241-4.843 2.187-6.541.65-1.167.199-3.518.199-4.868 0-2.007.244-4.221-.022-6.211-.121-.901-.795-2.491-1.392-3.194-.857-1.01-.77-2.177-1.568-3.149-2.567-3.129-2.998-7.972-5.566-11.101-1.997-2.433-3.18-4.449-5.765-6.168M89.662 165.627c-1.588-1.676-2.839-4.648-3.888-6.74-.354-.706-.802-.972-1.281-1.674-.464-.68-1.054-1.724-1.59-2.291-1.686-1.78-1.672-6.142-.796-8.546 1.07-2.934.604-8.663 3.8-10.484.724-.413 1.483-2.504 1.965-3.37.7-1.257 1.565-2.526 2.187-3.766"/><path stroke="#191717" stroke-linecap="round" stroke-width="2" d="M62.227 87.92c1.262 0 2.306-1.14 3.667-1.19 1.598-.056 2.593-.44 4.087-.77 2.477-.55 7.741-1.402 9.984-.198 1.774.952 5.262.504 6.494 1.938.595.692 2.396-.03 3.203.308 1.22.513 2.651.052 3.777.925.74.575 1.028 2.066 1.789 2.467 4.093 2.161 5.241 6.8 7.356 10.594.96 1.725-.134 4.488-.199 6.234-.11 2.941-.245 5.737-.398 8.634-.04.758-.284 2.598-.795 3.171-.328.368-1.413 1.496-1.59 1.807-.556.969-1.902 1.916-1.988 3.039-.06.772-.763 2.185-1.392 2.687-1.38 1.101 1.352 4.71 2.894 3.48.903-.72 2.824-4.223 3.666-4.273 2.449-.143 4.623.553 6.936 1.212.899.256.241 1.842 1.723 1.96 1.351.108 2.775.396 4.263.396 2.29 0 2.605-2.129 4.97-.881.749.396 1.852.644 2.607.859.332.095 2.749-.012 2.076-.682-.412-.411-.239 2.537-1.59 1.189-1.034-1.031.224-1.277 1.082-1.277.848 0 1.53-4.549 1.767-5.375.462-1.611-1.396-4.854-2.452-5.991-1.877-2.021-3.204-4.705-4.683-6.96-1.5-2.287-1.59-4.53-1.59-7.29 0-3.09-.347-5.901-.773-8.877-.313-2.181 2.503-4.163 4.175-5.242.88-.568 2.316-2.486 3.136-3.303 1.347-1.343 1.994-2.409 3.49-3.348 2.231-1.4 4.973-2.776 7.665-2.776.475 0 4.398-.125 2.982.705-1.226.72-2.373 1.1-3.578 1.872-2.521 1.616-4.761 3.767-7.864 3.767-1.152 0 .009-.384.508-.793 1.02-.838 2.335-1.948 3.578-2.379 1.538-.533 3.129-1.254 4.573-1.894 1.315-.583-2.563 1.47-3.093 1.806-1.248.792-2.365 2.509-3.865 2.841-1.41.313-5.507 1.69-4.087 1.432 3.049-.553 6.06-3.218 8.659-4.802 1.483-.903 3.546-1.365.597-1.365-2.188 0-3.703 1.186-5.368 2.467-1.152.885-1.528 1.44-2.143 2.665-.445.887 2.096-.677 2.541-1.564"/><path stroke="#191717" stroke-linecap="round" stroke-width="2" d="M84.493 89.902c-1.032-.7-1.524-1.585-2.783-1.585h-5.346c-2.913 0-6.706-.242-9.564-.992-2.056-.539-1.371-.065.596-.286 3.29-.37 6.566-.308 9.874-.308h5.058c1.914 0-.832.396-1.436.396-3.099 0-6.173-.396-9.277-.396h2.143c3.711 0 7.257.587 10.647 1.674 5.17 1.657-1.546 1.448-3.27.704-2.583-1.113-5.587-.544-8.172-1.189M82.505 102.193c.307-.034 2.386-1.828 2.386-2.181 0-.744.795-.759.795-1.586 0-.951-.374-.828-.796-1.564-.44-.77-2.217-2.013-2.96-2.224-1.391-.397-2.09-.771-3.799-.771-1.454 0-3.18.077-3.18 1.982 0 .887-.407 3.185.397 3.657 1.414.829 2.566 2.195 4.374 2.29 1.365.072 2.558.397 3.976.397"/><path stroke="#191717" stroke-linecap="round" stroke-width="2" d="M79.324 93.867c-1.317 0-2.702-.229-3.8.396-1.27.724-1.443 1.44-2.385 2.38-1.561 1.556-2.562 3.624-2.562 5.946 0 2.07 1.762 5.275 3.976 5.859 2.822.745 6.088-.308 8.924-.308 2.081 0 3.88-2.329 4.219-4.185.535-2.933.606-4.585-.994-7.093-1.336-2.092-3.724-3.788-6.384-3.788-.634 0-2.396-.309-2.894.088-.985.786-.07 1.498-1.678 1.498M128.626 93.074c-.69 0-1.577-.83-2.297-.308-.352.255-1.084.183-1.281.528-.214.373-.291 1.122-.597 1.366-1.524 1.216-2.297 3.175-2.186 5.154.047.846 1.514 1.415 1.987 2.07.899 1.245 1.984 1.828 3.159 2.511 1.86 1.082 3.761.969 5.986.969 1.82 0 3.976-.777 3.976-2.973 0-1.116.222-2.473-.022-3.568-.267-1.197-1.457-1.838-1.568-3.282-.117-1.514-1.753-4.053-3.38-4.053h-3.181c-1.257 0-1.3 1.394-2.186 1.983"/><path stroke="#191717" stroke-linecap="round" stroke-width="2" d="M126.638 94.66c-.28.035-1.08 1.488-1.171 1.806-.305 1.065.349 1.197.773 1.938.658 1.147 2.372 1.41 3.579 1.41 3.896 0 3.976-2.598 3.976-5.947M93.24 156.508h44.133M106.361 188.225c-2.626 0-4.237-.703-6.671-1.674-2.358-.941-3.183-3.071-6.052-3.48-3.63-.517-7.038-1.19-10.736-1.19-2.469 0-4.548.134-6.759-.969-2.195-1.094-4.39-2.791-6.67-3.7-.797-.318-1.583-1.325-2.253-1.872-.81-.66-2.136-.963-2.806-1.63-1.929-1.924-3.735-3.793-5.765-5.705-.786-.74-1.724-1.296-2.385-2.202-.87-1.193-1.392-1.916-2.165-3.128-3.287-5.151-2.893-10.358-2.606-16.079.088-1.766-.072-4.013.42-5.726.942-3.29-.296-6.713-.42-10.132-.207-5.652-1.59-11.174-1.59-16.872 0-5.701.27-11.477-.487-17.136-.496-3.707-1.104-7.249-1.104-10.99 0-2.185-1.193-4.237-1.193-6.146M75.348 183.467c0 1.747.398 3.066.398 4.758"/></svg>