<svg width="77" height="77" viewBox="0 0 77 77" fill="none" xmlns="http://www.w3.org/2000/svg">
<ellipse cx="49.3067" cy="12.0185" rx="6.0203" ry="6.01852" fill="url(#paint0_linear_2_265)"/>
<path d="M42.4836 13.2222H44.089C45.962 13.6235 49.7882 14.8272 50.1093 16.4321C50.5107 18.4383 56.9323 23.6543 58.5378 24.4568C59.8221 24.7778 67.9027 25.1255 71.7824 25.2593C71.3811 25.1255 70.8192 24.7778 71.7824 24.4568C72.7457 24.1358 74.8595 24.0556 75.7959 24.0556L74.5919 24.858L76.5986 25.6605L76.1973 26.0617L77 26.8642C77 27.1317 76.8395 27.9074 76.1973 28.8704C75.3946 30.0741 70.177 28.8704 69.3743 28.8704C68.5716 28.8704 59.3405 30.0741 57.735 30.0741C56.1296 30.0741 56.531 29.6729 49.708 26.463C49.708 27.6667 47.7012 34.4877 46.4972 38.0988C51.7147 39.3025 52.9188 42.9136 53.7215 45.321C54.5242 47.7284 56.9323 62.5741 58.1364 64.5803C58.9391 63.7778 61.3472 61.7716 62.1499 62.1729C62.7921 62.4938 62.6851 63.6441 62.5513 64.179C61.3472 66.4527 58.4575 71 56.531 71C54.1229 71 54.9256 67.7901 54.5242 67.7901C54.1229 67.7901 48.5039 60.9692 48.1026 56.5556C47.7012 52.142 41.6809 46.9259 40.0755 45.7222C39.2728 47.7284 32.8511 57.7593 31.6471 58.5617C30.443 59.3642 14.7902 58.1605 10.3754 59.3642C5.96048 60.5679 2.3483 69.7963 0.742894 67.3889C-2.14685 63.2161 4.0875 57.0906 7.5659 54.5494L7.16455 53.7469C7.16455 53.6132 7.32509 53.2654 7.96725 52.9445C24.0214 53.7469 26.8309 46.1235 27.2322 40.105C27.5533 35.2901 32.9849 24.4568 35.6606 19.642C35.5268 19.5082 34.1355 19.0803 29.6403 18.4383C29.3192 20.6852 26.8309 24.1893 25.6268 25.6605C25.0917 26.5967 24.1017 29.1111 24.4227 31.679C24.7438 34.2469 23.4862 34.6214 22.8173 34.4877C22.6835 35.0227 22.416 36.1729 22.416 36.4938C22.416 36.8148 21.8808 35.5576 21.6133 34.8889L21.2119 36.4938L20.4092 34.8889L20.0079 36.4938L19.2051 34.8889L18.4024 35.6914L18.0011 30.4753L20.8106 30.0741C21.6133 26.7305 23.9411 19.0803 26.8309 15.2284C29.7206 11.3766 38.4701 12.286 42.4836 13.2222Z" fill="url(#paint1_linear_2_265)"/>
<defs>
<linearGradient id="paint0_linear_2_265" x1="49.3067" y1="6" x2="49.3067" y2="18.037" gradientUnits="userSpaceOnUse">
<stop stop-color="#628EFF"/>
<stop offset="1" stop-color="#B5CAFF"/>
</linearGradient>
<linearGradient id="paint1_linear_2_265" x1="38.5" y1="12.4053" x2="38.5" y2="71" gradientUnits="userSpaceOnUse">
<stop stop-color="#628EFF"/>
<stop offset="1" stop-color="#B5CAFF"/>
</linearGradient>
</defs>
</svg>
